<svg width="400" height="400" viewBox="0 0 400 400" fill="none" xmlns="http://www.w3.org/2000/svg">
<g clip-path="url(#clip0_615:5)">
<circle cx="200.17" cy="200" r="200" fill="#1A1A1A"/>
<path d="M200.373 232.227C204.617 232.229 208.815 231.357 212.707 229.667C214.576 228.833 216.362 227.824 218.04 226.653C219.726 225.475 221.293 224.135 222.72 222.653C227.135 218.107 230.136 212.378 231.36 206.16C232.227 201.821 232.227 197.353 231.36 193.013C230.145 186.792 227.143 181.06 222.72 176.52C221.293 175.038 219.726 173.699 218.04 172.52C216.362 171.349 214.576 170.34 212.707 169.507C208.815 167.816 204.617 166.945 200.373 166.947V77.7466C208.595 77.7471 216.797 78.5735 224.853 80.2133C240.4 83.4098 255.162 89.6446 268.293 98.56C289.985 113.103 306.425 134.235 315.189 158.836C323.952 183.437 324.573 210.204 316.961 235.185C309.349 260.166 293.906 282.038 272.913 297.572C251.92 313.105 226.489 321.478 200.373 321.453V232.227ZM106.453 321.453V77.4533H184.213V132.173V266.667V321.413L106.453 321.453Z" fill="white"/>
</g>
<defs>
<clipPath id="clip0_615:5">
<rect width="400" height="400" fill="white"/>
</clipPath>
</defs>
</svg>
