<svg width="401" height="400" viewBox="0 0 401 400" fill="none" xmlns="http://www.w3.org/2000/svg">
<rect width="400" height="400" transform="translate(0.169922)" fill="white"/>
<path d="M200.543 232.227C204.787 232.229 208.985 231.357 212.877 229.667C214.746 228.833 216.532 227.824 218.21 226.653C219.896 225.475 221.463 224.135 222.89 222.653C227.305 218.107 230.306 212.378 231.53 206.16C232.397 201.821 232.397 197.353 231.53 193.013C230.315 186.792 227.313 181.06 222.89 176.52C221.463 175.038 219.896 173.699 218.21 172.52C216.532 171.349 214.746 170.34 212.877 169.507C208.985 167.816 204.787 166.945 200.543 166.947V77.7466C208.765 77.7471 216.966 78.5735 225.023 80.2133C240.57 83.4098 255.332 89.6446 268.463 98.56C290.155 113.103 306.595 134.235 315.358 158.836C324.122 183.437 324.743 210.204 317.131 235.185C309.518 260.166 294.076 282.038 273.083 297.572C252.09 313.105 226.659 321.478 200.543 321.453V232.227ZM106.623 321.453V77.4533H184.383V132.173V266.667V321.413L106.623 321.453Z" fill="black"/>
</svg>
